<svg width="18" height="18" viewBox="0 0 18 18" fill="none" xmlns="http://www.w3.org/2000/svg">
<path d="M7.75 2.75H10.25C10.25 2.41848 10.1183 2.10054 9.88388 1.86612C9.64946 1.6317 9.33152 1.5 9 1.5C8.66848 1.5 8.35054 1.6317 8.11612 1.86612C7.8817 2.10054 7.75 2.41848 7.75 2.75ZM6.5 2.75C6.5 2.08696 6.76339 1.45107 7.23223 0.982233C7.70107 0.513392 8.33696 0.25 9 0.25C9.66304 0.25 10.2989 0.513392 10.7678 0.982233C11.2366 1.45107 11.5 2.08696 11.5 2.75H16.5C16.6658 2.75 16.8247 2.81585 16.9419 2.93306C17.0592 3.05027 17.125 3.20924 17.125 3.375C17.125 3.54076 17.0592 3.69973 16.9419 3.81694C16.8247 3.93415 16.6658 4 16.5 4H15.795L14.2887 15.0475C14.1866 15.7962 13.8166 16.4825 13.2474 16.9793C12.6781 17.4762 11.9481 17.75 11.1925 17.75H6.8075C6.0519 17.75 5.32189 17.4762 4.75262 16.9793C4.18336 16.4825 3.81341 15.7962 3.71125 15.0475L2.205 4H1.5C1.33424 4 1.17527 3.93415 1.05806 3.81694C0.940848 3.69973 0.875 3.54076 0.875 3.375C0.875 3.20924 0.940848 3.05027 1.05806 2.93306C1.17527 2.81585 1.33424 2.75 1.5 2.75H6.5ZM7.75 7.125C7.75 6.95924 7.68415 6.80027 7.56694 6.68306C7.44973 6.56585 7.29076 6.5 7.125 6.5C6.95924 6.5 6.80027 6.56585 6.68306 6.68306C6.56585 6.80027 6.5 6.95924 6.5 7.125V13.375C6.5 13.5408 6.56585 13.6997 6.68306 13.8169C6.80027 13.9342 6.95924 14 7.125 14C7.29076 14 7.44973 13.9342 7.56694 13.8169C7.68415 13.6997 7.75 13.5408 7.75 13.375V7.125ZM10.875 6.5C10.7092 6.5 10.5503 6.56585 10.4331 6.68306C10.3158 6.80027 10.25 6.95924 10.25 7.125V13.375C10.25 13.5408 10.3158 13.6997 10.4331 13.8169C10.5503 13.9342 10.7092 14 10.875 14C11.0408 14 11.1997 13.9342 11.3169 13.8169C11.4342 13.6997 11.5 13.5408 11.5 13.375V7.125C11.5 6.95924 11.4342 6.80027 11.3169 6.68306C11.1997 6.56585 11.0408 6.5 10.875 6.5Z" fill="#FF6101"/>
</svg>
