<svg width="768" height="1079" viewBox="0 0 768 1079" fill="none" xmlns="http://www.w3.org/2000/svg">
<g filter="url(#filter0_dd_105_843)">
<path d="M12.6239 1134.12C-241.438 987.531 -153.437 584.646 55.5942 438.75C133.932 384.175 229.521 355.133 325.133 355.841C411.364 356.665 520.835 372.363 603.656 328.717C666.352 295.39 688.995 229.431 716.451 168.619C792.632 -0.524185 1030.14 -59.6379 1168.36 74.6489C1219.38 124.194 1246.85 198.574 1233.58 268.593C1202 431.179 1023.04 385.444 936.746 481.195C902.317 519.38 900.296 587.487 883.204 635.013C865.724 683.63 842.849 730.826 817.663 776.22C764.778 872.016 697.058 961.816 615.289 1035.08C452.264 1181.56 233.706 1246.16 29.4464 1143.52C23.8601 1140.56 18.2738 1137.6 12.6239 1134.12Z" fill="url(#paint0_radial_105_843)"/>
</g>
<defs>
<filter id="filter0_dd_105_843" x="-146.949" y="0.766113" width="1387.85" height="1200.81" filterUnits="userSpaceOnUse" color-interpolation-filters="sRGB">
<feFlood flood-opacity="0" result="BackgroundImageFix"/>
<feColorMatrix in="SourceAlpha" type="matrix" values="0 0 0 0 0 0 0 0 0 0 0 0 0 0 0 0 0 0 127 0" result="hardAlpha"/>
<feOffset dy="4"/>
<feGaussianBlur stdDeviation="2"/>
<feComposite in2="hardAlpha" operator="out"/>
<feColorMatrix type="matrix" values="0 0 0 0 0 0 0 0 0 0 0 0 0 0 0 0 0 0 0.25 0"/>
<feBlend mode="normal" in2="BackgroundImageFix" result="effect1_dropShadow_105_843"/>
<feColorMatrix in="SourceAlpha" type="matrix" values="0 0 0 0 0 0 0 0 0 0 0 0 0 0 0 0 0 0 127 0" result="hardAlpha"/>
<feOffset dy="4"/>
<feGaussianBlur stdDeviation="2"/>
<feComposite in2="hardAlpha" operator="out"/>
<feColorMatrix type="matrix" values="0 0 0 0 0 0 0 0 0 0 0 0 0 0 0 0 0 0 0.25 0"/>
<feBlend mode="normal" in2="effect1_dropShadow_105_843" result="effect2_dropShadow_105_843"/>
<feBlend mode="normal" in="SourceGraphic" in2="effect2_dropShadow_105_843" result="shape"/>
</filter>
<radialGradient id="paint0_radial_105_843" cx="0" cy="0" r="1" gradientUnits="userSpaceOnUse" gradientTransform="translate(824.689 106.339) rotate(-129.53) scale(1705.4 2866.93)">
<stop stop-color="#FEBB40"/>
<stop offset="0.5576" stop-color="#EC4C76"/>
<stop offset="0.9726" stop-color="#D60B52"/>
</radialGradient>
</defs>
</svg>
