<svg width="24" height="24" viewBox="0 0 24 24" fill="none" xmlns="http://www.w3.org/2000/svg">
<path d="M11.9997 0.333496C5.55967 0.333496 0.333008 5.56016 0.333008 12.0002C0.333008 18.4402 5.55967 23.6668 11.9997 23.6668C18.4397 23.6668 23.6663 18.4402 23.6663 12.0002C23.6663 5.56016 18.4397 0.333496 11.9997 0.333496ZM11.9997 5.00016C14.2513 5.00016 16.083 6.83183 16.083 9.0835C16.083 11.3352 14.2513 13.1668 11.9997 13.1668C9.74801 13.1668 7.91634 11.3352 7.91634 9.0835C7.91634 6.83183 9.74801 5.00016 11.9997 5.00016ZM11.9997 21.3335C9.63134 21.3335 6.83134 20.3768 4.83634 17.9735C6.87988 16.3702 9.40223 15.4988 11.9997 15.4988C14.5971 15.4988 17.1195 16.3702 19.163 17.9735C17.168 20.3768 14.368 21.3335 11.9997 21.3335Z" fill="white"/>
</svg>
